<svg id="Ebene_1" data-name="Ebene 1" xmlns="http://www.w3.org/2000/svg" viewBox="0 0 47.5 12.1"><defs><style>.cls-1{fill:#fff;}</style></defs><path class="cls-1" d="M11.3,10.4H9.5l-.4-1H5.7l-.5,1H3.5L7.4,1.6ZM6.4,7.8h2l-1-2.2Z"/><path class="cls-1" d="M13.8,10.4H12.2V2h4a2.7,2.7,0,0,1,1.9.8,2.6,2.6,0,0,1,.8,1.9,2.7,2.7,0,0,1-.6,1.7,2.4,2.4,0,0,1-1.6.9l2.4,3.1h-2l-2.3-3h-1Zm0-4.7h2.4a.9.9,0,0,0,.7-.3.9.9,0,0,0,.3-.7,1.1,1.1,0,0,0-.3-.8.9.9,0,0,0-.7-.3H13.8Z"/><path class="cls-1" d="M23.8,10.4a4.1,4.1,0,0,1-4.2-4.2,4.4,4.4,0,0,1,1.2-3,4.1,4.1,0,0,1,3-1.2,4,4,0,0,1,2.9,1.2L25.6,4.4a2.5,2.5,0,0,0-1.8-.8,2.7,2.7,0,0,0-1.9.8,2.4,2.4,0,0,0-.7,1.8A2.4,2.4,0,0,0,21.9,8a2.4,2.4,0,0,0,1.9.8A2.2,2.2,0,0,0,25.6,8l1.1,1.2A4,4,0,0,1,23.8,10.4Z"/><path class="cls-1" d="M34.1,2V3.6H31.7v6.8H30.1V3.6H27.7V2Z"/><path class="cls-1" d="M35.1,2h1.6v8.4H35.1Z"/><path class="cls-1" d="M41.8,10.4a4,4,0,0,1-2.9-1.2,4.2,4.2,0,0,1-1.3-3,4.5,4.5,0,0,1,1.3-3A4,4,0,0,1,41.8,2a4.1,4.1,0,0,1,3,1.2L43.7,4.4a2.6,2.6,0,0,0-1.9-.8,2.5,2.5,0,0,0-1.8.8,2.4,2.4,0,0,0-.7,1.8A2.4,2.4,0,0,0,40,8a2.2,2.2,0,0,0,1.8.8A2.2,2.2,0,0,0,43.7,8l1.1,1.2A4.1,4.1,0,0,1,41.8,10.4Z"/></svg>