<svg id="Ebene_1" data-name="Ebene 1" xmlns="http://www.w3.org/2000/svg" viewBox="0 0 21.5 4.6"><defs><style>.cls-1{fill:#fff;}</style></defs><path class="cls-1" d="M7.5,5.5H6.6L6.4,5H4.6l-.2.5H3.5L5.5,1ZM5,4.2H6L5.5,3Z" transform="translate(-3.5 -1)"/><path class="cls-1" d="M8.9,5.5H8V1.2h2.1a1.3,1.3,0,0,1,1,.4,1.5,1.5,0,0,1,.4.9,1.2,1.2,0,0,1-.3.9,1.4,1.4,0,0,1-.8.5l1.2,1.6h-1L9.4,3.9H8.9Zm0-2.4h1.2l.4-.2c.1-.1.1-.2.1-.4a.4.4,0,0,0-.1-.3L10.1,2H8.9Z" transform="translate(-3.5 -1)"/><path class="cls-1" d="M14,5.5a2,2,0,0,1-1.5-.6,2.1,2.1,0,0,1-.6-1.6A2.1,2.1,0,0,1,14,1.2a2.3,2.3,0,0,1,1.6.6l-.6.6A1.3,1.3,0,0,0,14,2a1.2,1.2,0,0,0-.9.4,1.2,1.2,0,0,0-.4.9,1.3,1.3,0,0,0,.4,1,1.2,1.2,0,0,0,.9.4,1.3,1.3,0,0,0,1-.4l.6.6A2.3,2.3,0,0,1,14,5.5Z" transform="translate(-3.5 -1)"/><path class="cls-1" d="M19.5,1.2V2H18.2V5.5h-.9V2H16.1V1.2Z" transform="translate(-3.5 -1)"/><path class="cls-1" d="M19.9,1.2h.9V5.5h-.9Z" transform="translate(-3.5 -1)"/><path class="cls-1" d="M23.5,5.5a2.3,2.3,0,0,1-1.6-.6,2.1,2.1,0,0,1-.6-1.6,2,2,0,0,1,.6-1.5,2.3,2.3,0,0,1,1.6-.6,2,2,0,0,1,1.5.6l-.6.6a1.1,1.1,0,0,0-.9-.4,1.3,1.3,0,0,0-1,.4,1.2,1.2,0,0,0-.4.9,1.3,1.3,0,0,0,.4,1,1.3,1.3,0,0,0,1,.4,1.1,1.1,0,0,0,.9-.4l.6.6A2,2,0,0,1,23.5,5.5Z" transform="translate(-3.5 -1)"/></svg>